<svg version="1.1" xmlns="http://www.w3.org/2000/svg" viewBox="152 399 697 200" xml:space="preserve">
  <g fill="currentColor">
    <!-- N letter -->
    <path d="M518.635742,508.857422 C519.431274,508.593201 520.420044,508.017853 520.433716,507.420197 C520.555786,502.091766 520.506104,496.759369 520.506165,491.428131 C520.506409,472.440430 520.506226,453.452698 520.506226,434.137573 C531.081421,434.137573 541.488831,434.137573 552.246399,434.137573 C552.246399,478.592957 552.246399,523.109070 552.246399,568.038513 C542.511047,568.038513 532.881226,568.190491 523.266846,567.873230 C521.838745,567.826172 520.147766,565.793335 519.144836,564.299011 C503.202667,540.545044 487.354340,516.728027 471.478485,492.929535 C470.505035,491.470337 469.481140,490.044800 467.535919,488.828583 C467.535919,515.136780 467.535919,541.444946 467.535919,567.894104 C456.611084,567.894104 446.303558,567.894104 435.625336,567.894104 C435.625336,523.320923 435.625336,478.789978 435.625336,433.811890 C446.046173,433.811890 456.517548,433.697113 466.979828,433.953033 C468.330566,433.986053 470.005432,435.690308 470.904846,437.037750 C486.786591,460.831940 502.571167,484.690948 518.635742,508.857422 z"/>
    <!-- O letter -->
    <path d="M326.272583,433.189880 C339.177521,430.170502 351.734741,429.832306 364.285675,432.679260 C386.237640,437.658600 400.432983,451.321777 406.703156,472.624878 C412.320557,491.709961 412.170349,511.158478 406.304840,530.240295 C398.856476,554.471375 379.758148,569.474243 354.476562,570.810791 C346.404114,571.237549 338.047729,571.000732 330.163879,569.390198 C307.962616,564.855164 293.726715,550.836060 287.189636,529.422241 C281.528503,510.877991 281.545135,491.946075 286.592010,473.239502 C292.138428,452.681366 305.192200,439.142303 326.272583,433.189880 M374.208008,521.605286 C378.482971,507.872375 378.904846,494.048859 374.274719,480.388062 C369.655609,466.759918 359.366730,459.297760 346.439362,459.453735 C333.647064,459.608032 323.419373,467.491089 319.097534,481.095001 C314.842773,494.487640 314.998413,508.062256 319.382416,521.367615 C322.414978,530.571472 328.084442,537.830627 337.725067,541.065063 C352.987671,546.185547 366.794434,539.027527 374.208008,521.605286 z"/>
    <!-- S letter -->
    <path d="M226.980255,491.084473 C234.704254,495.341431 242.541641,498.819092 249.343033,503.731140 C269.083221,517.987854 266.375031,553.364624 242.947922,563.971680 C220.793259,574.002625 197.995377,574.696594 175.891617,563.949219 C159.912506,556.179810 153.070572,542.044128 152.338470,524.361877 C162.882416,524.361877 173.158463,524.361877 183.427200,524.361877 C186.041656,536.376526 192.052200,541.591614 204.489136,541.900635 C209.430908,542.023438 214.486404,541.527466 219.327118,540.525574 C223.310226,539.701172 226.688965,537.435181 227.106232,532.587219 C227.516190,527.824280 225.523605,524.445984 221.300552,522.541809 C209.646866,517.287170 197.765732,512.507996 186.295395,506.886047 C178.741486,503.183685 171.006317,499.219238 164.646439,493.841644 C150.588501,481.954895 150.221191,458.804779 163.002426,445.501923 C171.782043,436.364014 183.028122,432.548096 195.180756,431.312622 C206.485260,430.163391 217.820953,430.341431 228.785583,434.065033 C246.372086,440.037354 257.565735,455.688751 257.848785,475.178864 C248.072189,475.178864 238.292297,475.239868 228.516373,475.071014 C227.672699,475.056458 226.492218,473.670532 226.080841,472.669800 C220.944427,460.174988 204.376617,455.192627 193.122101,462.838562 C187.422638,466.710541 187.464722,473.079620 193.909103,476.317841 C203.832718,481.304291 214.167313,485.472931 224.328857,489.985596 C225.087402,490.322479 225.856277,490.636017 226.980255,491.084473 z"/>
    <!-- U letter -->
    <path d="M585.173340,492.999908 C585.180176,473.510895 585.186096,454.521881 585.202087,435.532898 C585.202393,435.217773 585.325562,434.902740 585.471924,434.201660 C595.772583,434.201660 606.157654,434.201660 617.217041,434.201660 C617.217041,435.751190 617.217041,437.503571 617.217041,439.255951 C617.217163,463.408813 617.215637,487.561707 617.220459,511.714569 C617.220825,513.546448 617.196716,515.382385 617.302368,517.209534 C617.848938,526.667358 620.503967,535.033997 629.974121,539.262085 C639.896912,543.692261 649.784119,543.365234 659.076660,537.566772 C667.250488,532.466309 668.835815,524.065369 668.875732,515.323914 C668.991516,490.005554 668.919922,464.686371 668.921753,439.367493 C668.921875,437.722900 668.921814,436.078308 668.921814,434.124512 C679.537170,434.124512 689.924133,434.124512 700.648743,434.124512 C700.721741,435.580872 700.856995,437.029510 700.857666,438.478210 C700.870117,463.630524 701.015808,488.784332 700.762146,513.934082 C700.697205,520.370789 700.057373,526.972168 698.478333,533.192444 C692.879639,555.247681 675.193909,569.194641 651.261169,570.907593 C639.557739,571.745300 627.888123,571.384033 616.858521,566.826172 C594.921265,557.760864 586.218872,540.000000 585.273743,517.483582 C584.938660,509.501678 585.189819,501.495209 585.173340,492.999908 z"/>
    <!-- Lightning/symbol top -->
    <path d="M747.066956,427.142273 C756.211060,408.130707 775.831116,399.449799 794.558472,405.847900 C796.278809,406.435608 798.362732,406.840179 799.517273,408.053497 C805.114868,413.935394 812.106140,414.058533 819.483643,413.899048 C825.291138,413.773499 830.533142,415.960602 834.785339,420.154114 C837.377747,422.710724 837.939392,425.572571 834.920532,427.836975 C829.046631,432.242889 822.876221,436.253510 816.834656,440.423645 C820.204468,442.600159 818.338440,445.430084 816.128296,448.540039 C807.172668,461.141449 796.492920,471.073456 780.320129,473.284454 C759.214233,476.169922 742.717468,460.637238 744.505371,439.174316 C744.832581,435.245728 746.112000,431.396484 747.066956,427.142273 M808.717712,441.538818 C801.659302,442.626373 794.634460,444.165314 787.534424,444.692291 C777.695679,445.422455 767.543579,446.761444 759.244629,439.325226 C752.519165,445.683868 752.034119,449.705780 757.617310,456.509705 C759.457275,458.751953 761.921082,460.748108 764.502075,462.072937 C780.477051,470.273285 804.968140,459.487823 810.632996,441.971680 C810.633728,441.745728 810.634521,441.519806 810.635315,441.293854 C810.265442,441.351288 809.895569,441.408722 808.717712,441.538818 M819.422058,430.040466 C821.012207,427.950470 822.602356,425.860474 824.192505,423.770477 C821.818970,422.926575 819.459167,422.039948 817.062256,421.268707 C816.461426,421.075409 815.737610,421.209503 815.076599,421.266174 C798.560852,422.681824 782.773804,426.971802 767.541565,433.403229 C766.515625,433.836395 765.656982,434.665955 764.720581,435.311157 C768.905640,436.179688 772.730713,436.283417 776.548584,436.161194 C790.809448,435.704773 805.176880,435.967010 819.422058,430.040466 M779.582947,422.050232 C785.760254,419.980743 791.937622,417.911255 798.952942,415.561035 C788.421509,409.134064 778.641174,409.293884 768.869263,414.619049 C760.728943,419.055206 755.467834,425.727753 753.513367,434.728241 C762.229553,430.452301 770.537537,426.376587 779.582947,422.050232 z"/>
    <!-- Lightning/symbol bottom -->
    <path d="M746.083740,575.035400 C755.828064,559.524658 765.671631,531.577942 765.130676,519.761780 C761.410400,525.730957 758.326599,530.958984 754.959717,535.997986 C751.921631,540.544800 748.835999,545.116211 745.230530,549.199219 C743.832214,550.782837 740.307495,552.335754 738.893250,551.626343 C736.761230,550.556885 734.565430,547.600342 734.321472,545.246460 C733.942383,541.587708 734.552917,537.528442 735.844666,534.047424 C740.801697,520.689331 746.157776,507.478119 751.458984,494.249725 C752.684082,491.192627 755.174622,489.822266 758.126343,488.044067 C768.107056,482.031219 779.074951,479.901276 790.066406,477.345703 C798.465149,475.392914 806.726257,472.855560 815.094666,470.762268 C821.345947,469.198547 826.678345,471.012604 830.622437,476.131989 C840.744507,489.270477 847.575012,503.893372 849.672546,520.456299 C850.240356,524.940186 850.289368,530.379395 845.643066,532.418640 C841.103943,534.410889 837.513123,530.328491 834.804932,527.063599 C830.248291,521.570251 826.265930,515.604492 821.895691,509.950714 C819.995422,507.492401 817.732422,505.314575 815.181030,503.256195 C816.204529,514.088928 819.045166,524.286316 824.409180,533.669189 C828.366089,540.590637 832.953125,547.171387 836.603271,554.242615 C839.700806,560.243408 842.131104,566.636658 844.305176,573.043396 C845.227417,575.761230 845.249084,579.040283 844.779236,581.917175 C843.998047,586.700195 842.662231,591.944031 837.427002,593.503967 C832.267883,595.041260 829.098022,590.717346 826.556763,587.163269 C822.317444,581.234436 818.903381,574.719788 814.740845,568.730530 C811.536438,564.119812 808.051514,559.601013 804.087097,555.647095 C798.839783,550.413757 793.580078,550.529663 788.407532,555.946472 C784.879211,559.641479 782.194336,564.132019 779.032593,568.189026 C773.212219,575.657593 767.589905,583.306702 761.359253,590.420044 C757.237244,595.126099 751.798523,598.057007 745.140747,598.056274 C741.542603,598.055908 740.096130,596.415466 739.859863,592.959595 C739.397583,586.198792 742.704956,580.814392 746.083740,575.035400 M765.297180,549.827942 C765.095581,550.461914 764.966309,551.130615 764.681458,551.724731 C760.238098,560.994690 755.695740,570.218750 751.402283,579.557312 C750.770386,580.931702 751.297119,582.838806 751.287842,584.499451 C753.119385,584.440369 755.373230,585.033997 756.691223,584.181213 C759.148132,582.591492 761.412964,580.415771 763.138245,578.035034 C770.257629,568.210999 777.386292,558.377258 784.041931,548.238708 C789.506409,539.914734 795.136658,538.333252 803.441223,544.126831 C806.553223,546.297913 809.714539,548.753967 811.950928,551.753052 C817.188232,558.776489 821.973938,566.145813 826.750061,573.500122 C828.876648,576.774780 830.509705,580.382874 835.540527,581.552429 C835.540527,579.294617 835.742737,577.528015 835.506958,575.822021 C834.198792,566.356323 829.400574,558.435364 824.610718,550.387085 C819.194641,541.286499 814.080750,531.943604 809.689270,522.316589 C806.466125,515.250916 804.250549,507.593719 805.765625,499.552063 C807.259521,491.623138 811.800781,489.528442 818.031067,494.634369 C823.248230,498.910156 827.565674,504.300964 832.170166,509.300537 C834.744446,512.095764 837.092163,515.099609 839.541992,518.009460 C840.177917,517.668640 840.813843,517.327881 841.449768,516.987061 C838.379395,509.009796 835.798645,500.799103 832.130920,493.106628 C825.631958,479.476196 821.186768,477.567566 806.315430,480.373291 C805.989136,480.434875 805.673279,480.550232 805.349243,480.626343 C790.634644,484.081665 775.909485,487.493622 761.223694,491.067413 C760.027283,491.358582 758.719727,492.546539 758.105286,493.668976 C750.974792,506.694183 745.290649,520.302246 742.343933,534.920105 C741.767456,537.780090 741.828491,540.768616 741.595581,543.697815 C742.162048,543.825562 742.728516,543.953308 743.294983,544.081055 C747.223572,536.991882 751.006409,529.816650 755.127686,522.841309 C758.328064,517.424622 761.696777,512.061340 765.534180,507.094208 C766.751404,505.518616 769.718689,505.294952 771.885071,504.452606 C772.500305,506.531403 773.953979,508.768890 773.595459,510.663391 C771.161621,523.524719 768.345337,536.313660 765.297180,549.827942 z"/>
  </g>
</svg>
