<svg xmlns="http://www.w3.org/2000/svg" viewBox="0 0 100 100" width="100" height="100">
  <defs>
    <linearGradient id="fireOuter" x1="0%" y1="100%" x2="0%" y2="0%">
      <stop offset="0%" stop-color="#ef4444"/>
      <stop offset="60%" stop-color="#f97316"/>
      <stop offset="100%" stop-color="#fbbf24"/>
    </linearGradient>
    <linearGradient id="fireInner" x1="0%" y1="100%" x2="0%" y2="0%">
      <stop offset="0%" stop-color="#ea580c"/>
      <stop offset="60%" stop-color="#fde047"/>
      <stop offset="100%" stop-color="#ffffff"/>
    </linearGradient>
    <filter id="fireGlow" x="-20%" y="-20%" width="140%" height="140%">
      <feGaussianBlur stdDeviation="3.5" result="blur"/>
      <feComposite in="SourceGraphic" in2="blur" operator="over"/>
    </filter>
  </defs>
  <!-- Outer Flame -->
  <path d="M50 6 C56 22, 68 28, 76 42 C86 58, 84 82, 66 92 C48 102, 24 94, 18 74 C14 60, 22 46, 32 36 C34 44, 40 48, 44 42 C48 36, 44 20, 50 6 Z" fill="url(#fireOuter)" filter="url(#fireGlow)"/>
  <!-- Middle Flame -->
  <path d="M50 36 C55 46, 64 52, 68 62 C74 72, 70 86, 56 90 C42 94, 30 84, 32 72 C34 62, 42 58, 44 50 C46 44, 46 40, 50 36 Z" fill="url(#fireInner)"/>
  <!-- Core Spark -->
  <circle cx="50" cy="74" r="7" fill="#ffffff" opacity="0.9"/>
</svg>
